# xmcd CD database file
#
# Track frame offsets:
#	150
#	19042
#	37740
#	51345
#	65320
#	84215
#	103470
#	121697
#	133817
#	148965
#
# Disc length: 2228 seconds
#
# Revision: 0
# Processed by: cddbd v1.5.1PL2 Copyright (c) Steve Scherf et al.
# Submitted via: CDex 1.51
#
DISCID=8608b20a
DTITLE=忍たま乱太郎 - 忍たま乱太郎 オリジナル・サウンドトラック
DYEAR=1993
DGENRE=アニメ
TTITLE0=光GENJI/勇気100%
TTITLE1=忍たまファミリー/忍たまファミリーご紹介の段
TTITLE2=SAY・S/RUN RUN 乱太郎
TTITLE3=乱太郎、きり丸、しんべェ/忍たまGO!GO! らくだいSONG
TTITLE4=ユキ、トモミ、しげ/不思議なテレパシー
TTITLE5=忍ジャーズ/ダンシング・ジャンク
TTITLE6=諸星和己(光GENJI)/もっとでっかくNo.1
TTITLE7=忍ジャーズ/四方八方肘鉄砲
TTITLE8=光GENJI/微笑みをあずけて
TTITLE9=SAY・S＆忍たまファミリー/にんにん忍たま音頭
EXTD=YEAR: 1993
EXTT0=
EXTT1=
EXTT2=
EXTT3=
EXTT4=
EXTT5=
EXTT6=
EXTT7=
EXTT8=
EXTT9=
PLAYORDER=
